<svg xmlns="http://www.w3.org/2000/svg" width="57.021" height="55.121" viewBox="0 0 57.021 55.121">
  <g id="noun_ar_2254890" transform="translate(0)">
    <path id="Path_6" data-name="Path 6" d="M38.551,17H17.96A4.033,4.033,0,0,0,14,21.176V67.945a4.033,4.033,0,0,0,3.96,4.176H38.551a4.033,4.033,0,0,0,3.96-4.176V21.176A4.033,4.033,0,0,0,38.551,17ZM21.128,18.67H35.383v.835a.769.769,0,0,1-.792.835H21.92a.769.769,0,0,1-.792-.835Zm19.8,47.521v1.754a2.4,2.4,0,0,1-2.376,2.506H17.96a2.4,2.4,0,0,1-2.376-2.506V21.176A2.4,2.4,0,0,1,17.96,18.67h1.584v.835a2.4,2.4,0,0,0,2.376,2.506H34.591a2.4,2.4,0,0,0,2.376-2.506V18.67h1.584a2.4,2.4,0,0,1,2.376,2.506V66.191Z" transform="translate(-14 -17)" fill="#4b462e"/>
    <path id="Path_151" data-name="Path 151" d="M.043.184,6.958,0,6.915,1.627,0,1.811Z" transform="translate(40.485 9.307) rotate(-45)" fill="#4b462e"/>
    <rect id="Rectangle_4" data-name="Rectangle 4" width="5.702" height="1.67" transform="translate(51.319 28.229)" fill="#4b462e"/>
    <path id="Path_152" data-name="Path 152" d="M.159.043,1.782,0,1.623,6.036,0,6.079Z" transform="matrix(0.74, -0.673, 0.673, 0.74, 40.431, 50.305)" fill="#4b462e"/>
    <path id="Path_7" data-name="Path 7" d="M66.78,38.552,53,30.2v1.921l11.246,6.848L53,45.818v1.921l12.2-7.433V58.178L53,65.611v1.921L66.78,59.18Z" transform="translate(-22.114 -19.176)" fill="#4b462e"/>
    <path id="Path_8" data-name="Path 8" d="M27.6,59.18l13.78,8.352V65.611l-12.2-7.433V40.306l12.2,7.433V45.818L30.134,38.969,41.38,32.121V30.2L27.6,38.552Z" transform="translate(-16.829 -19.176)" fill="#4b462e"/>
  </g>
</svg>
