<svg xmlns="http://www.w3.org/2000/svg" width="29.673" height="34.947" viewBox="0 0 29.673 34.947">
  <g id="noun_cart_3423836" transform="translate(0 0)">
    <path id="Path_52" data-name="Path 52" d="M6.692,36.947H34.033a1.159,1.159,0,0,0,1.159-1.258L33.176,10.644a1.165,1.165,0,0,0-1.165-1.072H27.934a7.572,7.572,0,0,0-15.144,0H8.713a1.165,1.165,0,0,0-1.165,1.072L5.527,35.689a1.159,1.159,0,0,0,1.165,1.258ZM20.362,4.33A5.242,5.242,0,0,1,25.6,9.572H15.12A5.242,5.242,0,0,1,20.362,4.33ZM9.785,11.9H30.94l1.829,22.716H7.956Z" transform="translate(-5.523 -2)" fill="#222"/>
  </g>
</svg>
