<svg id="noun_fast_delivery_3527046" data-name="noun_fast delivery_3527046" xmlns="http://www.w3.org/2000/svg" width="68.053" height="48.698" viewBox="0 0 68.053 48.698">
  <g id="fast_delivery" data-name="fast delivery" transform="translate(0)">
    <path id="Path_3" data-name="Path 3" d="M70.838,34.786H69.623V25.815a1.25,1.25,0,0,0-1.215-1.282H59.9V23.252a1.25,1.25,0,0,0-1.215-1.282H47.748V14.282A1.25,1.25,0,0,0,46.533,13H5.215A1.25,1.25,0,0,0,4,14.282V54.009a1.25,1.25,0,0,0,1.215,1.282H8.97a7.867,7.867,0,0,0,1.762,3.845H5.215a1.283,1.283,0,0,0,0,2.563H67.192a1.283,1.283,0,0,0,0-2.563h-4.3a7.867,7.867,0,0,0,1.762-3.845h6.186a1.25,1.25,0,0,0,1.215-1.282V36.068A1.25,1.25,0,0,0,70.838,34.786ZM67.192,27.1v7.689H59.9V27.1Zm-16.9,28.194a7.867,7.867,0,0,0,1.762,3.845H21.572a7.867,7.867,0,0,0,1.762-3.845ZM6.43,15.563H45.318V52.728H23.334a7.412,7.412,0,0,0-7.182-6.362A7.412,7.412,0,0,0,8.97,52.728H6.43Zm4.861,38.446a5,5,0,0,1,4.861-5.126,5.133,5.133,0,0,1,0,10.252A5,5,0,0,1,11.291,54.009Zm41.318,0a4.868,4.868,0,1,1,4.861,5.126A5,5,0,0,1,52.609,54.009Zm17.013-1.282h-4.97a7.235,7.235,0,0,0-14.364,0h-2.54V24.534H57.47V36.068a1.25,1.25,0,0,0,1.215,1.282H69.623Z" transform="translate(-4 -13)" fill="#4b462e"/>
    <path id="Path_4" data-name="Path 4" d="M51.646,34h-2.43a1.283,1.283,0,0,0,0,2.563h2.43a1.283,1.283,0,0,0,0-2.563Z" transform="translate(5.47 -7.088)" fill="#4b462e"/>
    <path id="Path_5" data-name="Path 5" d="M17.215,37.5H26.67L24.506,48.782a1.3,1.3,0,0,0,.741,1.448,1.09,1.09,0,0,0,.474.09,1.2,1.2,0,0,0,1.021-.59L37.68,31.789a1.342,1.342,0,0,0,.044-1.306,1.207,1.207,0,0,0-1.065-.668H28.249l8.142-10.739a1.339,1.339,0,0,0,.146-1.346A1.212,1.212,0,0,0,35.444,17H24.506a1.216,1.216,0,0,0-1.118.782L16.1,35.723A1.342,1.342,0,0,0,16.2,36.93,1.2,1.2,0,0,0,17.215,37.5Zm8.093-17.941h7.607L24.774,30.3a1.339,1.339,0,0,0-.146,1.346,1.212,1.212,0,0,0,1.094.73h8.713L28.152,42.631l1.215-6.164a1.333,1.333,0,0,0-.255-1.064,1.19,1.19,0,0,0-.96-.461h-9.09Z" transform="translate(-1.417 -11.874)" fill="#4b462e"/>
  </g>
</svg>
