<svg id="noun_organic_3569320" xmlns="http://www.w3.org/2000/svg" width="56.696" height="46.573" viewBox="0 0 56.696 46.573">
  <path id="Path_1" data-name="Path 1" d="M15.24,95.986a30.483,30.483,0,0,0,24.822,15.587h.229a24.517,24.517,0,0,0,13.064-4.418,34.146,34.146,0,0,0,9.7-11.168,33.917,33.917,0,0,0,1.584-30.411A.921.921,0,0,0,63.853,65h-.1A30.453,30.453,0,0,0,39.147,80.213,30.454,30.454,0,0,0,14.542,65h-.116a.921.921,0,0,0-.72.473h0a.854.854,0,0,0-.043.087h0A33.92,33.92,0,0,0,15.24,95.986ZM40.511,81.6a28.684,28.684,0,0,1,22.7-14.609,31.879,31.879,0,0,1-1.741,27.985c-5.119,8.917-11.644,13.69-19.915,14.544a33.862,33.862,0,0,0,1.965-7.781,1.018,1.018,0,0,0,.037-.145,34.594,34.594,0,0,1,6.4-15,23.23,23.23,0,0,1,4.583-4.684,1.008,1.008,0,0,0,.271-1.35.9.9,0,0,0-1.28-.285A24.526,24.526,0,0,0,48.571,85.3a35.044,35.044,0,0,0-4.91,8.916,33.66,33.66,0,0,0-3.546-12.244.944.944,0,0,0,.4-.377ZM15.08,66.99A28.658,28.658,0,0,1,37.433,81a31.885,31.885,0,0,1,2.6,27.287L27.332,85.6a.9.9,0,0,0-1.271-.344,1.008,1.008,0,0,0-.326,1.34l12.818,22.9A28.8,28.8,0,0,1,16.576,94.538,31.912,31.912,0,0,1,15.085,67Z" transform="translate(-10.799 -65)" fill="#4b462e"/>
</svg>
