<svg xmlns="http://www.w3.org/2000/svg" width="34.947" height="34.947" viewBox="0 0 34.947 34.947">
  <g id="noun_profile_963329" transform="translate(0 0)">
    <g id="Group_14" data-name="Group 14" transform="translate(0 0)">
      <g id="Group_13" data-name="Group 13" transform="translate(0 0)">
        <path id="Path_53" data-name="Path 53" d="M20.774,3.3A17.474,17.474,0,1,0,38.247,20.774,17.518,17.518,0,0,0,20.774,3.3Zm-9.03,29.592a10.641,10.641,0,0,1,9.108-5.277,10.5,10.5,0,0,1,9.069,5.2,15.071,15.071,0,0,1-18.177.078ZM31.68,31.25a12.707,12.707,0,0,0-10.828-5.942,12.936,12.936,0,0,0-10.867,6.02,15.108,15.108,0,1,1,21.7-.078Z" transform="translate(-3.3 -3.3)"/>
        <path id="Path_54" data-name="Path 54" d="M38.315,21.7a6.215,6.215,0,1,0,6.215,6.215A6.231,6.231,0,0,0,38.315,21.7Zm0,10.046a3.87,3.87,0,1,1,3.87-3.87A3.879,3.879,0,0,1,38.315,31.746Z" transform="translate(-20.842 -14.507)"/>
      </g>
    </g>
  </g>
</svg>
