<svg xmlns="http://www.w3.org/2000/svg" width="46.899" height="48.698" viewBox="0 0 46.899 48.698">
  <g id="noun_vegan_3664081" transform="translate(0)">
    <g id="Group_1" data-name="Group 1" transform="translate(0)">
      <path id="Path_2" data-name="Path 2" d="M13.4,18.312v.264c0,.066,0,.066.063.132,0,.066.063.066.063.132a.064.064,0,0,0,.063.066c8.254,13.98,14.132,26.377,20.823,44.116v.132c0,.066.063.066.063.132h0c.063.066.063.132.125.132h.063c.063,0,.063.066.125.066h.063c.063,0,.125.066.188.066h.625c.063,0,.063,0,.125-.066h.063c.063,0,.063-.066.125-.066a.062.062,0,0,0,.063-.066c.063-.066.125-.066.125-.132h0c.063-.066.063-.132.125-.132v-.066c0-.066.063-.066.063-.132v-.132A146.059,146.059,0,0,1,46.1,38.293a10.855,10.855,0,0,0,3.939.725,8.977,8.977,0,0,0,7.5-4.088c2.751-3.891,2.439-8.836,2.189-12.859-.125-2.308-.25-4.55.375-5.407A1.323,1.323,0,0,0,60.3,16a1.09,1.09,0,0,0-.438-.923,1,1,0,0,0-1.5.264c-.625.857-2.626,1.385-4.815,1.912-3.689.923-8.254,2.11-11.006,6-3.064,4.352-2.5,9.5,1.5,14.046l.063.066c-1.751,3.429-3.314,6.924-4.815,10.485A195.6,195.6,0,0,0,24.531,17.521a1.089,1.089,0,0,0-.938-.528h-9.5c-.063,0-.063.066-.125.066a.062.062,0,0,0-.063.066h0c-.063,0-.063.066-.125.066l-.063.066-.063.066-.063.066-.063.066-.063.066c0,.066,0,.066-.063.132v.33h0C13.4,18.246,13.4,18.312,13.4,18.312Zm31.016,6.4c2.251-3.231,6.253-4.22,9.755-5.078a32.172,32.172,0,0,0,3.439-.989,26.339,26.339,0,0,0,.125,3.759c.25,3.825.5,8.111-1.813,11.342-2.564,3.627-6,3.495-8.567,2.7,1.813-3.495,3.814-6.858,6-10.287a1.194,1.194,0,0,0-.313-1.583,1.061,1.061,0,0,0-1.5.33c-2.251,3.495-4.252,6.99-6.128,10.551C43.478,33.084,41.352,29.061,44.416,24.709ZM38.163,50.888c0,.066.063.066.063.132-1,2.7-2,5.407-2.876,8.177a269.853,269.853,0,0,0-18.885-39.83h6.691A194.939,194.939,0,0,1,38.163,50.888Z" transform="translate(-13.4 -14.851)" fill="#4b462e"/>
    </g>
  </g>
</svg>
